<?xml version="1.0" encoding="UTF-8"?>
<!DOCTYPE svg PUBLIC "-//W3C//DTD SVG 1.1//EN" "http://www.w3.org/Graphics/SVG/1.1/DTD/svg11.dtd">
<svg xmlns="http://www.w3.org/2000/svg" version="1.1" width="50px" height="27px" style="shape-rendering:geometricPrecision; text-rendering:geometricPrecision; image-rendering:optimizeQuality; fill-rule:evenodd; clip-rule:evenodd" xmlns:xlink="http://www.w3.org/1999/xlink">
<g><path style="opacity:0.673" fill="#fefffe" d="M -0.5,-0.5 C 0.833333,-0.5 2.16667,-0.5 3.5,-0.5C 4.61436,4.62945 5.28103,4.62945 5.5,-0.5C 7.16667,-0.5 8.83333,-0.5 10.5,-0.5C 10.5153,12.7494 11.1819,12.7494 12.5,-0.5C 14.1667,-0.5 15.8333,-0.5 17.5,-0.5C 18.8203,14.0942 19.4869,14.0942 19.5,-0.5C 21.1667,-0.5 22.8333,-0.5 24.5,-0.5C 24.8333,4.83333 25.1667,4.83333 25.5,-0.5C 26.5,-0.5 27.5,-0.5 28.5,-0.5C 28.5,4.83333 28.5,10.1667 28.5,15.5C 27.1667,15.5 25.8333,15.5 24.5,15.5C 24.1667,11.5 23.8333,11.5 23.5,15.5C 19.7812,16.2283 16.7812,15.2283 14.5,12.5C 13.6143,13.325 13.281,14.325 13.5,15.5C 8.83333,15.5 4.16667,15.5 -0.5,15.5C -0.5,10.1667 -0.5,4.83333 -0.5,-0.5 Z"/></g>
<g><path style="opacity:0.707" fill="#fefefe" d="M 29.5,-0.5 C 30.5,-0.5 31.5,-0.5 32.5,-0.5C 32.8333,3.5 33.1667,3.5 33.5,-0.5C 35.8333,-0.5 38.1667,-0.5 40.5,-0.5C 40.5,0.5 40.5,1.5 40.5,2.5C 40.0269,3.90632 39.0269,4.57298 37.5,4.5C 37.5,5.16667 37.5,5.83333 37.5,6.5C 36.6618,6.84171 36.3284,7.50838 36.5,8.5C 36.1667,8.5 35.8333,8.5 35.5,8.5C 33.1118,2.96747 32.1118,3.3008 32.5,9.5C 33.5,9.5 34.5,9.5 35.5,9.5C 35.33,10.8221 35.6634,11.9887 36.5,13C 35.9558,13.7172 35.2891,14.2172 34.5,14.5C 33.0335,11.7417 32.3668,12.075 32.5,15.5C 31.5,15.5 30.5,15.5 29.5,15.5C 29.5,10.1667 29.5,4.83333 29.5,-0.5 Z"/></g>
<g><path style="opacity:0.79" fill="#fcfcfc" d="M 41.5,-0.5 C 42.5,-0.5 43.5,-0.5 44.5,-0.5C 45.1667,7.5 45.8333,7.5 46.5,-0.5C 47.5,-0.5 48.5,-0.5 49.5,-0.5C 49.5,4.83333 49.5,10.1667 49.5,15.5C 48.8333,15.5 48.1667,15.5 47.5,15.5C 47.6107,14.8826 47.944,14.3826 48.5,14C 47.0267,13.2904 46.3601,12.1238 46.5,10.5C 45.3774,9.24258 44.7107,9.57591 44.5,11.5C 44.1959,13.7957 43.1959,14.129 41.5,12.5C 42.1157,11.2022 42.1157,10.2022 41.5,9.5C 41.5,8.5 41.5,7.5 41.5,6.5C 41.5,5.16667 41.5,3.83333 41.5,2.5C 41.5,1.5 41.5,0.5 41.5,-0.5 Z M 46.5,10.5 C 45.8333,10.8333 45.1667,11.1667 44.5,11.5C 44.7107,9.57591 45.3774,9.24258 46.5,10.5 Z"/></g>
<g><path style="opacity:0.344" fill="#a2a2a2" d="M 40.5,2.5 C 40.8333,2.5 41.1667,2.5 41.5,2.5C 41.5,3.83333 41.5,5.16667 41.5,6.5C 40.6618,6.84171 40.3284,7.50838 40.5,8.5C 39.7777,7.44886 38.7777,6.78219 37.5,6.5C 37.5,5.83333 37.5,5.16667 37.5,4.5C 39.0269,4.57298 40.0269,3.90632 40.5,2.5 Z"/></g>
<g><path style="opacity:1" fill="#e0e0e0" d="M 37.5,6.5 C 38.7777,6.78219 39.7777,7.44886 40.5,8.5C 40.5,9.16667 40.8333,9.5 41.5,9.5C 42.1157,10.2022 42.1157,11.2022 41.5,12.5C 40.5987,13.2905 39.9321,14.2905 39.5,15.5C 38.8333,15.5 38.1667,15.5 37.5,15.5C 37.6775,14.3052 38.0109,13.1385 38.5,12C 37.5705,10.9231 36.9038,9.75644 36.5,8.5C 36.3284,7.50838 36.6618,6.84171 37.5,6.5 Z"/></g>
<g><path style="opacity:0.753" fill="#b5b5b5" d="M 35.5,8.5 C 35.8333,8.5 36.1667,8.5 36.5,8.5C 36.9038,9.75644 37.5705,10.9231 38.5,12C 38.0109,13.1385 37.6775,14.3052 37.5,15.5C 36.5,15.5 35.5,15.5 34.5,15.5C 34.5,15.1667 34.5,14.8333 34.5,14.5C 35.2891,14.2172 35.9558,13.7172 36.5,13C 35.6634,11.9887 35.33,10.8221 35.5,9.5C 35.5,9.16667 35.5,8.83333 35.5,8.5 Z"/></g>
<g><path style="opacity:0.294" fill="#9e9e9e" d="M 34.5,15.5 C 35.5,15.5 36.5,15.5 37.5,15.5C 36.2765,19.6153 34.2765,23.282 31.5,26.5C 30.5,26.5 29.5,26.5 28.5,26.5C 28.6847,21.7941 30.6847,18.1274 34.5,15.5 Z"/></g>
<g><path style="opacity:0.309" fill="#a5a5a5" d="M 46.5,10.5 C 46.3601,12.1238 47.0267,13.2904 48.5,14C 47.944,14.3826 47.6107,14.8826 47.5,15.5C 46.9078,18.6907 45.7411,21.6907 44,24.5C 42.9887,25.3366 41.8221,25.67 40.5,25.5C 41.0558,21.77 42.7225,18.6034 45.5,16C 43.3208,16.284 41.3208,16.1174 39.5,15.5C 39.9321,14.2905 40.5987,13.2905 41.5,12.5C 43.1959,14.129 44.1959,13.7957 44.5,11.5C 45.1667,11.1667 45.8333,10.8333 46.5,10.5 Z"/></g>
</svg>
